STARTFONT 2.1
FONT -thai-dbthaitext-medium-r-normal--55-401-100-100-p-166-tis620-0
SIZE 40 100 100
FONTBOUNDINGBOX 73 64 -18 -23
STARTPROPERTIES 25
FOUNDRY "thai"
FAMILY_NAME "dbthaitext"
WEIGHT_NAME "medium"
SLANT "r"
SETWIDTH_NAME "normal"
ADD_STYLE_NAME ""
PIXEL_SIZE 55
POINT_SIZE 401
RESOLUTION_X 100
RESOLUTION_Y 100
SPACING "p"
AVERAGE_WIDTH 166
CHARSET_REGISTRY "tis620"
CHARSET_ENCODING "0"
FONT "-thai-dbthaitext-medium-r-normal--55-401-100-100-p-166-tis620-0"
COPYRIGHT "Typeface (c) The Monotype Corporation plc. Data (c) The Monotype Corporation plc/Type Solutions Inc. 1990-1992. All Rights Reserved"
RAW_PIXELSIZE 1000
RAW_POINTSIZE 723
RAW_ASCENT 736
RAW_DESCENT 415
RAW_AVERAGE_WIDTH 2994
FACE_NAME "DBThaiTexthickne5"
DEFAULT_CHAR 0
FONT_ASCENT 41
FONT_DESCENT 23
ENDPROPERTIES
CHARS 190
STARTCHAR space
ENCODING 32
SWIDTH 252 0
DWIDTH 14 0
BBX 0 0 0 0
BITMAP
ENDCHAR
STARTCHAR exclam
ENCODING 33
SWIDTH 162 0
DWIDTH 9 0
BBX 2 24 5 0
BITMAP
c0
c0
c0
c0
c0
c0
c0
c0
c0
c0
c0
c0
c0
c0
c0
c0
40
40
00
00
00
c0
c0
c0
ENDCHAR
STARTCHAR quotedbl
ENCODING 34
SWIDTH 216 0
DWIDTH 12 0
BBX 8 9 2 15
BITMAP
e3
e3
e3
e3
e3
e3
e3
41
41
ENDCHAR
STARTCHAR numbersign
ENCODING 35
SWIDTH 324 0
DWIDTH 18 0
BBX 18 24 0 -1
BITMAP
038700
038700
038700
038700
030e00
070e00
070e00
7fffc0
7fffc0
060c00
0e1c00
0e1c00
0e1c00
0e1c00
ffff80
ffff80
1c3800
1c3800
1c3800
1c3000
187000
387000
387000
081000
ENDCHAR
STARTCHAR dollar
ENCODING 36
SWIDTH 324 0
DWIDTH 18 0
BBX 16 30 1 -4
BITMAP
0180
0180
07e0
1ff8
3ffc
799e
718e
6186
6186
6180
7180
7980
3f80
1fe0
0ffc
01fe
019e
0187
0183
e183
e183
e187
7186
798e
3ffc
1ff8
03c0
0180
0180
0180
ENDCHAR
STARTCHAR percent
ENCODING 37
SWIDTH 540 0
DWIDTH 30 0
BBX 27 25 1 -1
BITMAP
00001800
1f003000
3f803000
70c06000
e0606000
c060c000
c060c000
c0618000
e0e18000
71c30000
3f830000
1f060000
00060000
000c0000
00081f00
00183f80
001060c0
0030e060
0020c060
0060c060
0040c060
00c060c0
018073c0
01803f80
03000e00
ENDCHAR
STARTCHAR ampersand
ENCODING 38
SWIDTH 396 0
DWIDTH 22 0
BBX 19 25 2 -1
BITMAP
00c000
07f000
0ff800
1c3c00
1c1c00
1c1c00
1c1c00
1c1c00
0e3800
07f000
07e000
078000
1fc000
3de380
78f380
f07b80
e03f00
e01f00
e01e00
e00e00
f01f00
783f80
3ffbc0
1fe1e0
078000
ENDCHAR
STARTCHAR apostrophe
ENCODING 39
SWIDTH 108 0
DWIDTH 6 0
BBX 2 9 2 15
BITMAP
c0
c0
c0
c0
c0
c0
c0
40
40
ENDCHAR
STARTCHAR parenleft
ENCODING 40
SWIDTH 198 0
DWIDTH 11 0
BBX 7 31 3 -7
BITMAP
0c
0c
1c
18
18
30
30
60
60
60
60
c0
c0
c0
c0
c0
c0
c0
c0
c0
60
60
60
60
30
30
30
18
18
0c
0c
ENDCHAR
STARTCHAR parenright
ENCODING 41
SWIDTH 198 0
DWIDTH 11 0
BBX 7 31 1 -7
BITMAP
40
60
20
30
10
18
18
0c
0c
0c
0c
0e
06
06
06
06
06
06
06
0e
0c
0c
0c
0c
18
18
10
30
20
60
40
ENDCHAR
STARTCHAR asterisk
ENCODING 42
SWIDTH 234 0
DWIDTH 13 0
BBX 10 10 1 15
BITMAP
0800
0c00
0c00
6cc0
ffc0
1f00
1e00
1f00
3380
1100
ENDCHAR
STARTCHAR plus
ENCODING 43
SWIDTH 342 0
DWIDTH 19 0
BBX 16 16 2 0
BITMAP
0180
0180
0180
0180
0180
0180
0180
ffff
ffff
0180
0180
0180
0180
0180
0180
0180
ENDCHAR
STARTCHAR comma
ENCODING 44
SWIDTH 162 0
DWIDTH 9 0
BBX 5 7 2 -3
BITMAP
70
f8
f8
f8
18
30
60
ENDCHAR
STARTCHAR minus
ENCODING 45
SWIDTH 198 0
DWIDTH 11 0
BBX 8 2 1 8
BITMAP
ff
ff
ENDCHAR
STARTCHAR period
ENCODING 46
SWIDTH 162 0
DWIDTH 9 0
BBX 5 5 2 0
BITMAP
70
f8
f8
f8
70
ENDCHAR
STARTCHAR slash
ENCODING 47
SWIDTH 162 0
DWIDTH 9 0
BBX 10 25 0 -1
BITMAP
00c0
00c0
0180
0180
0180
0300
0300
0300
0600
0600
0600
0c00
0c00
0c00
1800
1800
1800
3000
3000
3000
6000
6000
6000
c000
c000
ENDCHAR
STARTCHAR 0
ENCODING 48
SWIDTH 288 0
DWIDTH 16 0
BBX 13 21 1 -1
BITMAP
0f80
1fc0
3de0
7070
6030
6038
e038
e038
c018
c018
c018
c018
c018
e038
e038
6030
6030
7070
3fe0
1fc0
0700
ENDCHAR
STARTCHAR 1
ENCODING 49
SWIDTH 288 0
DWIDTH 16 0
BBX 7 20 3 0
BITMAP
06
06
0e
3e
fe
fe
06
06
06
06
06
06
06
06
06
06
06
06
06
06
ENDCHAR
STARTCHAR 2
ENCODING 50
SWIDTH 288 0
DWIDTH 16 0
BBX 14 20 1 0
BITMAP
0fc0
1ff0
3c78
7038
701c
601c
e01c
001c
0038
0078
01f0
07c0
0f80
1e00
3800
7000
6000
e000
fffc
fffc
ENDCHAR
STARTCHAR 3
ENCODING 51
SWIDTH 288 0
DWIDTH 16 0
BBX 13 21 1 -1
BITMAP
0f80
3fe0
78f0
7030
6030
e030
0030
0070
01e0
07c0
07f0
0070
0038
0018
c018
e018
e038
7070
7ff0
3fe0
0700
ENDCHAR
STARTCHAR 4
ENCODING 52
SWIDTH 288 0
DWIDTH 16 0
BBX 14 20 1 0
BITMAP
0060
00e0
00e0
01e0
0360
0760
0e60
0c60
1860
3860
7060
6060
c060
fffc
fffc
0060
0060
0060
0060
0060
ENDCHAR
STARTCHAR 5
ENCODING 53
SWIDTH 288 0
DWIDTH 16 0
BBX 14 21 1 -1
BITMAP
3ff8
3ff8
3800
3000
3000
7000
7000
67c0
7ff0
78f8
6038
003c
001c
001c
001c
e01c
f038
7878
7ff0
1fe0
0700
ENDCHAR
STARTCHAR 6
ENCODING 54
SWIDTH 288 0
DWIDTH 16 0
BBX 13 21 1 -1
BITMAP
0780
1fe0
3cf0
7030
6030
6000
c000
c000
cfc0
dfe0
f070
e038
e018
c018
c018
e018
6038
7070
38e0
1fc0
0700
ENDCHAR
STARTCHAR 7
ENCODING 55
SWIDTH 288 0
DWIDTH 16 0
BBX 13 20 2 0
BITMAP
fff8
fff8
0038
0030
0060
0060
00c0
0080
0180
0300
0300
0600
0600
0e00
0c00
0c00
1c00
1c00
1800
0800
ENDCHAR
STARTCHAR 8
ENCODING 56
SWIDTH 288 0
DWIDTH 16 0
BBX 13 21 1 -1
BITMAP
0f80
3fe0
3ff0
7070
6030
6030
6030
7070
3fe0
1fc0
3fe0
6070
e038
c018
c018
c018
e038
7070
7fe0
1fc0
0700
ENDCHAR
STARTCHAR 9
ENCODING 57
SWIDTH 288 0
DWIDTH 16 0
BBX 13 21 1 -1
BITMAP
0f80
3fc0
78e0
7070
e030
c030
c018
c018
e038
e038
70f8
3fd8
1f98
0018
0038
0030
e030
70e0
7fe0
3fc0
0600
ENDCHAR
STARTCHAR colon
ENCODING 58
SWIDTH 162 0
DWIDTH 9 0
BBX 5 19 2 0
BITMAP
30
f8
f8
f8
20
00
00
00
00
00
00
00
00
00
70
f8
f8
f8
20
ENDCHAR
STARTCHAR semicolon
ENCODING 59
SWIDTH 162 0
DWIDTH 9 0
BBX 6 21 1 -3
BITMAP
78
f8
f8
70
00
00
00
00
00
00
00
00
00
00
78
7c
7c
7c
0c
18
70
ENDCHAR
STARTCHAR less
ENCODING 60
SWIDTH 342 0
DWIDTH 19 0
BBX 16 16 2 0
BITMAP
0001
0007
001f
00fe
03f0
0fc0
7e00
f800
e000
fc00
3f00
07e0
01f8
003f
000f
0003
ENDCHAR
STARTCHAR equal
ENCODING 61
SWIDTH 342 0
DWIDTH 19 0
BBX 16 8 2 4
BITMAP
ffff
ffff
0000
0000
0000
0000
ffff
ffff
ENDCHAR
STARTCHAR greater
ENCODING 62
SWIDTH 342 0
DWIDTH 19 0
BBX 16 16 2 0
BITMAP
8000
e000
f800
7e00
0fc0
03f0
007c
001f
0007
003f
00fc
07e0
1f80
fe00
f000
c000
ENDCHAR
STARTCHAR question
ENCODING 63
SWIDTH 324 0
DWIDTH 18 0
BBX 14 25 3 0
BITMAP
0fc0
3fe0
7ff0
7078
e038
e01c
e01c
c01c
003c
0038
0078
00f0
01e0
03c0
0380
0700
0600
0600
0600
0000
0000
0000
0600
0600
0600
ENDCHAR
STARTCHAR at
ENCODING 64
SWIDTH 612 0
DWIDTH 34 0
BBX 30 30 2 -5
BITMAP
000fc000
003ff800
00fffe00
03f03f80
078007c0
0f0001e0
1e0000f0
1c000070
380fce38
303fee38
60787c38
60703c1c
60e03c1c
c1e0381c
c1c03818
c1c03818
c1c07038
c1c07030
c1c07070
e1e0e0e0
60f3f1e0
60ff7fc0
703e3f00
38000000
3c000000
1f000000
0fc00800
03f07800
01fffc00
003fc000
ENDCHAR
STARTCHAR A
ENCODING 65
SWIDTH 396 0
DWIDTH 22 0
BBX 21 24 1 0
BITMAP
007800
00f800
00f800
01fc00
01dc00
01dc00
038e00
038e00
038e00
070700
070700
0f0380
0e0380
0e0780
1fffc0
1fffc0
1c01c0
3800e0
3800e0
7800e0
700070
700070
f00070
600078
ENDCHAR
STARTCHAR B
ENCODING 66
SWIDTH 396 0
DWIDTH 22 0
BBX 18 24 3 0
BITMAP
fff800
fffc00
e03e00
e00f00
e00700
e00780
e00780
e00700
e00700
e00e00
fffc00
fffe00
ffff00
e00780
e00380
e00380
e001c0
e001c0
e003c0
e00380
e00780
ffff00
fffe00
fff800
ENDCHAR
STARTCHAR C
ENCODING 67
SWIDTH 432 0
DWIDTH 24 0
BBX 20 26 2 -1
BITMAP
01f800
07fe00
0fff80
1f0f80
3c03c0
3801e0
7000e0
700070
600000
e00000
e00000
e00000
e00000
e00000
e00000
e00000
e00070
700070
700070
7000f0
3801e0
3c03c0
1f0fc0
0fff80
07fe00
00f000
ENDCHAR
STARTCHAR D
ENCODING 68
SWIDTH 432 0
DWIDTH 24 0
BBX 19 24 3 0
BITMAP
fff000
fffe00
e01f00
e00780
e00380
e001c0
e001c0
e000e0
e000e0
e00060
e00060
e00060
e00060
e00060
e000e0
e000e0
e001c0
e001c0
e001c0
e00380
e00700
ffff00
fffc00
fff800
ENDCHAR
STARTCHAR E
ENCODING 69
SWIDTH 396 0
DWIDTH 22 0
BBX 16 24 4 0
BITMAP
ffff
ffff
c000
c000
c000
c000
c000
c000
c000
c000
fffe
fffe
fffe
c000
c000
c000
c000
c000
c000
c000
c000
ffff
ffff
ffff
ENDCHAR
STARTCHAR F
ENCODING 70
SWIDTH 360 0
DWIDTH 20 0
BBX 15 24 4 0
BITMAP
fffe
fffe
c000
c000
c000
c000
c000
c000
c000
c000
fffc
fffc
fffc
c000
c000
c000
c000
c000
c000
c000
c000
c000
c000
c000
ENDCHAR
STARTCHAR G
ENCODING 71
SWIDTH 468 0
DWIDTH 26 0
BBX 21 26 2 -1
BITMAP
00fe00
07ff80
0fffc0
1f83e0
3c00e0
380070
300070
700038
600000
e00000
e00000
e00000
e01ff8
e01ff8
e01ff8
e00038
e00038
600038
700038
700078
380078
3c01f8
1e03f8
0f8798
03fe18
00f800
ENDCHAR
STARTCHAR H
ENCODING 72
SWIDTH 432 0
DWIDTH 24 0
BBX 18 24 3 0
BITMAP
c000c0
c000c0
c000c0
c000c0
c000c0
c000c0
c000c0
c000c0
c000c0
c000c0
ffffc0
ffffc0
ffffc0
c000c0
c000c0
c000c0
c000c0
c000c0
c000c0
c000c0
c000c0
c000c0
c000c0
c000c0
ENDCHAR
STARTCHAR I
ENCODING 73
SWIDTH 162 0
DWIDTH 9 0
BBX 2 24 4 0
BITMAP
c0
c0
c0
c0
c0
c0
c0
c0
c0
c0
c0
c0
c0
c0
c0
c0
c0
c0
c0
c0
c0
c0
c0
c0
ENDCHAR
STARTCHAR J
ENCODING 74
SWIDTH 306 0
DWIDTH 17 0
BBX 13 25 1 -1
BITMAP
0038
0038
0038
0038
0038
0038
0038
0038
0038
0038
0038
0038
0038
0038
0038
0038
e038
e038
e038
e038
e078
70f0
7fe0
3fc0
0f00
ENDCHAR
STARTCHAR K
ENCODING 75
SWIDTH 396 0
DWIDTH 22 0
BBX 19 24 3 0
BITMAP
e00380
e007c0
e00f80
e01f00
e03e00
e07c00
e0f000
e1e000
e3c000
e78000
ef8000
ffc000
fde000
f8f000
f07000
e07800
e03c00
e01c00
e01e00
e00f00
e00700
e00780
e003c0
e001c0
ENDCHAR
STARTCHAR L
ENCODING 76
SWIDTH 324 0
DWIDTH 18 0
BBX 15 24 3 0
BITMAP
c000
c000
c000
c000
c000
c000
c000
c000
c000
c000
c000
c000
c000
c000
c000
c000
c000
c000
c000
c000
c000
fffe
fffe
fffe
ENDCHAR
STARTCHAR M
ENCODING 77
SWIDTH 504 0
DWIDTH 28 0
BBX 22 24 3 0
BITMAP
f0003c
f0007c
f8007c
f8007c
f800fc
fc00dc
ec00dc
ec01dc
ee019c
e6019c
e7039c
e7031c
e3031c
e3871c
e3871c
e1861c
e1ce1c
e1ce1c
e0cc1c
e0fc1c
e0fc1c
e0f81c
e0781c
e0781c
ENDCHAR
STARTCHAR N
ENCODING 78
SWIDTH 432 0
DWIDTH 24 0
BBX 18 24 3 0
BITMAP
f001c0
f001c0
f801c0
f801c0
fc01c0
de01c0
de01c0
cf01c0
c701c0
c781c0
c3c1c0
c1c1c0
c1e1c0
c0e1c0
c071c0
c079c0
c039c0
c01dc0
c01dc0
c00fc0
c007c0
c007c0
c003c0
c001c0
ENDCHAR
STARTCHAR O
ENCODING 79
SWIDTH 468 0
DWIDTH 26 0
BBX 24 26 1 -1
BITMAP
007e00
03ffc0
07ffe0
0fc3f0
1e0078
3c003c
78001c
78001e
70000e
f0000f
f0000f
e00007
e00007
e00007
e00007
e0000f
f0000f
70000e
78001e
78001e
3c003c
1e0078
0f81f0
07ffe0
01ff80
007c00
ENDCHAR
STARTCHAR P
ENCODING 80
SWIDTH 396 0
DWIDTH 22 0
BBX 16 24 4 0
BITMAP
fff0
fffc
c01e
c00f
c007
c007
c007
c007
c007
c00f
c01f
fffe
fffc
fff0
c000
c000
c000
c000
c000
c000
c000
c000
c000
c000
ENDCHAR
STARTCHAR Q
ENCODING 81
SWIDTH 468 0
DWIDTH 26 0
BBX 24 27 1 -2
BITMAP
007e00
03ffc0
07ffe0
0fc3f0
1e0078
3c003c
78001c
78001e
70000e
f0000f
f0000f
e00007
e00007
e00007
e00007
e0000f
f0000f
70000e
78011e
78039e
3c03fc
1e01f8
0f81f0
07fffc
01ffde
007c0e
000002
ENDCHAR
STARTCHAR R
ENCODING 82
SWIDTH 432 0
DWIDTH 24 0
BBX 19 24 4 0
BITMAP
fffc00
ffff00
c00f80
c00780
c00380
c003c0
c003c0
c00380
c00380
c00780
c00f00
fffe00
fffe00
ffff00
c00780
c00380
c00380
c00380
c00380
c00380
c00380
c003c0
c003e0
c001e0
ENDCHAR
STARTCHAR S
ENCODING 83
SWIDTH 396 0
DWIDTH 22 0
BBX 19 26 2 -1
BITMAP
07f800
1ffe00
3e3f00
3c0f80
780780
7003c0
6001c0
e001c0
f00000
780000
7e0000
3fe000
1ffe00
03ff00
003fc0
0007c0
0001e0
c000e0
e000e0
e000e0
e001e0
7003c0
7c0f80
3fff00
1ffe00
03f000
ENDCHAR
STARTCHAR T
ENCODING 84
SWIDTH 360 0
DWIDTH 20 0
BBX 19 24 1 0
BITMAP
ffffe0
ffffe0
00c000
00c000
00c000
00c000
00c000
00c000
00c000
00c000
00c000
00c000
00c000
00c000
00c000
00c000
00c000
00c000
00c000
00c000
00c000
00c000
00c000
00c000
ENDCHAR
STARTCHAR U
ENCODING 85
SWIDTH 432 0
DWIDTH 24 0
BBX 18 25 3 -1
BITMAP
c000c0
c000c0
c000c0
c000c0
c000c0
c000c0
c000c0
c000c0
c000c0
c000c0
c000c0
c000c0
c000c0
c000c0
c000c0
c000c0
c000c0
c000c0
e001c0
e001c0
700380
7c0700
3e1f00
0ffe00
03f000
ENDCHAR
STARTCHAR V
ENCODING 86
SWIDTH 396 0
DWIDTH 22 0
BBX 20 24 1 0
BITMAP
e00060
6000f0
7000e0
7000e0
3001e0
3801c0
3801c0
1803c0
1c0380
1c0380
0e0700
0e0700
0e0700
070e00
070e00
030e00
039c00
039c00
019800
01f800
01f800
00f000
00f000
00f000
ENDCHAR
STARTCHAR W
ENCODING 87
SWIDTH 558 0
DWIDTH 31 0
BBX 30 24 1 0
BITMAP
e0078038
f007803c
7007803c
700fc038
700fc078
780fc078
380cc078
381ce070
381ce070
3c18e0f0
1c3870e0
1c3870e0
1c3870e0
1e3031e0
0e7039c0
0e7039c0
0e7039c0
0fe01bc0
07e01f80
07e01f80
07c00f80
03c00f80
03c00f00
03c00f00
ENDCHAR
STARTCHAR X
ENCODING 88
SWIDTH 396 0
DWIDTH 22 0
BBX 21 24 1 0
BITMAP
780070
3c00f0
3c01e0
1e03c0
0f03c0
0f0780
078f00
038e00
03de00
01fc00
00f800
00f800
00f800
01fc00
03de00
03ce00
078f00
0f0780
1f0780
1e03c0
3c01e0
7c01e0
f800f0
300078
ENDCHAR
STARTCHAR Y
ENCODING 89
SWIDTH 396 0
DWIDTH 22 0
BBX 22 24 0 0
BITMAP
780030
78007c
3c0078
1c00f0
1e00f0
0f01e0
0703c0
0783c0
03c780
01c700
01ef00
00fe00
007c00
007c00
003800
003800
003800
003800
003800
003800
003800
003800
003800
003800
ENDCHAR
STARTCHAR Z
ENCODING 90
SWIDTH 360 0
DWIDTH 20 0
BBX 18 24 1 0
BITMAP
7fffc0
7fffc0
0003c0
000780
000f80
001f00
001e00
003c00
007800
007800
00f000
01e000
03c000
03c000
078000
0f0000
1e0000
1e0000
3c0000
780000
f00000
ffffc0
ffffc0
ffffc0
ENDCHAR
STARTCHAR bracketleft
ENCODING 91
SWIDTH 162 0
DWIDTH 9 0
BBX 5 31 3 -7
BITMAP
f8
f8
c0
c0
c0
c0
c0
c0
c0
c0
c0
c0
c0
c0
c0
c0
c0
c0
c0
c0
c0
c0
c0
c0
c0
c0
c0
c0
c0
f8
f8
ENDCHAR
STARTCHAR backslash
ENCODING 92
SWIDTH 162 0
DWIDTH 9 0
BBX 10 25 0 -1
BITMAP
c000
e000
6000
6000
7000
3000
3000
3800
1800
1800
1800
0c00
0c00
0c00
0600
0600
0600
0300
0300
0300
0180
0180
0180
00c0
00c0
ENDCHAR
STARTCHAR bracketright
ENCODING 93
SWIDTH 162 0
DWIDTH 9 0
BBX 6 31 1 -7
BITMAP
fc
fc
0c
0c
0c
0c
0c
0c
0c
0c
0c
0c
0c
0c
0c
0c
0c
0c
0c
0c
0c
0c
0c
0c
0c
0c
0c
0c
0c
fc
fc
ENDCHAR
STARTCHAR asciicircum
ENCODING 94
SWIDTH 288 0
DWIDTH 16 0
BBX 13 13 1 11
BITMAP
0700
0700
0f80
0d80
1dc0
1cc0
18c0
38e0
3060
7070
6070
6030
e038
ENDCHAR
STARTCHAR underscore
ENCODING 95
SWIDTH 324 0
DWIDTH 18 0
BBX 20 2 -1 -6
BITMAP
fffff0
fffff0
ENDCHAR
STARTCHAR grave
ENCODING 96
SWIDTH 162 0
DWIDTH 9 0
BBX 9 9 0 5
BITMAP
3e00
7f00
ff80
ff80
ff80
ff80
ff80
7f00
3e00
ENDCHAR
STARTCHAR a
ENCODING 97
SWIDTH 324 0
DWIDTH 18 0
BBX 17 19 1 -1
BITMAP
07e000
1ff800
3ffc00
381c00
700c00
700c00
000c00
001c00
07fc00
3ffc00
7e1c00
700c00
e00c00
e00c00
e01c00
703c00
7fff80
3fcf80
0f0300
ENDCHAR
STARTCHAR b
ENCODING 98
SWIDTH 324 0
DWIDTH 18 0
BBX 15 25 2 -1
BITMAP
c000
c000
c000
c000
c000
e000
e7e0
eff0
fff8
f83c
f01c
e00e
e00e
e00e
c00e
c00e
c00e
c00e
e00e
e01e
f01c
f83c
fff8
4ff0
03c0
ENDCHAR
STARTCHAR c
ENCODING 99
SWIDTH 306 0
DWIDTH 17 0
BBX 14 19 2 -1
BITMAP
07c0
1ff0
3ff8
3038
601c
601c
c000
c000
c000
c000
c000
c000
c01c
601c
6038
7878
3ff0
3fe0
0780
ENDCHAR
STARTCHAR d
ENCODING 100
SWIDTH 324 0
DWIDTH 18 0
BBX 15 25 1 -1
BITMAP
0006
0006
0006
0006
0006
0006
07c6
1ff6
3ffe
7c3e
701e
f00e
e00e
e006
e006
e006
e006
e006
e00e
700e
701e
383e
3e76
1fe6
07c0
ENDCHAR
STARTCHAR e
ENCODING 101
SWIDTH 324 0
DWIDTH 18 0
BBX 16 19 1 -1
BITMAP
03e0
0ff8
3e7c
381e
700e
700f
f00f
e007
ffff
ffff
e000
e000
e000
700e
700e
781e
3e7c
1ff8
03c0
ENDCHAR
STARTCHAR f
ENCODING 102
SWIDTH 162 0
DWIDTH 9 0
BBX 8 25 1 0
BITMAP
0f
1f
3f
38
30
30
30
30
ff
ff
30
30
30
30
30
30
30
30
30
30
30
30
30
30
30
ENDCHAR
STARTCHAR g
ENCODING 103
SWIDTH 324 0
DWIDTH 18 0
BBX 15 25 1 -7
BITMAP
07c6
1ff6
3ffe
7c3e
701e
700e
e00e
e00e
e006
e006
e006
e006
e00e
f00e
701e
783e
3ffe
1fce
078e
000e
700c
701c
7c3c
3ff8
0fe0
ENDCHAR
STARTCHAR h
ENCODING 104
SWIDTH 324 0
DWIDTH 18 0
BBX 13 24 3 0
BITMAP
c000
c000
c000
c000
c000
c000
e7c0
eff0
fff0
f038
e018
c018
c018
c018
c018
c018
c018
c018
c018
c018
c018
c018
c018
c018
ENDCHAR
STARTCHAR i
ENCODING 105
SWIDTH 126 0
DWIDTH 7 0
BBX 2 24 3 0
BITMAP
c0
c0
c0
00
00
00
00
c0
c0
c0
c0
c0
c0
c0
c0
c0
c0
c0
c0
c0
c0
c0
c0
c0
ENDCHAR
STARTCHAR j
ENCODING 106
SWIDTH 126 0
DWIDTH 7 0
BBX 6 31 -1 -7
BITMAP
0c
0c
0c
00
00
00
00
0c
0c
0c
0c
0c
0c
0c
0c
0c
0c
0c
0c
0c
0c
0c
0c
0c
0c
0c
0c
0c
3c
fc
f0
ENDCHAR
STARTCHAR k
ENCODING 107
SWIDTH 306 0
DWIDTH 17 0
BBX 15 24 2 0
BITMAP
c000
c000
c000
c000
c000
c000
c000
c078
c0f0
e1e0
e3c0
e780
ef00
ff00
ff80
fb80
e1c0
c1e0
c0e0
c0f0
c070
c038
c03c
c01c
ENDCHAR
STARTCHAR l
ENCODING 108
SWIDTH 126 0
DWIDTH 7 0
BBX 2 24 3 0
BITMAP
c0
c0
c0
c0
c0
c0
c0
c0
c0
c0
c0
c0
c0
c0
c0
c0
c0
c0
c0
c0
c0
c0
c0
c0
ENDCHAR
STARTCHAR m
ENCODING 109
SWIDTH 504 0
DWIDTH 28 0
BBX 22 18 3 0
BITMAP
cfc3f0
dfe7f8
f8f638
f07c1c
e0380c
c0300c
c0300c
c0300c
c0300c
c0300c
c0300c
c0300c
c0300c
c0300c
c0300c
c0300c
c0300c
c0300c
ENDCHAR
STARTCHAR n
ENCODING 110
SWIDTH 324 0
DWIDTH 18 0
BBX 13 18 3 0
BITMAP
c7c0
dff0
fff0
f078
e038
e018
c018
c018
c018
c018
c018
c018
c018
c018
c018
c018
c018
c018
ENDCHAR
STARTCHAR o
ENCODING 111
SWIDTH 324 0
DWIDTH 18 0
BBX 16 19 1 -1
BITMAP
07e0
1ff8
3ffc
3c1e
700e
700e
f007
e007
e003
e003
e003
e007
7007
700e
781e
3c3c
3ffc
0ff8
03c0
ENDCHAR
STARTCHAR p
ENCODING 112
SWIDTH 324 0
DWIDTH 18 0
BBX 15 25 2 -7
BITMAP
c7e0
cff0
dff8
f83c
f01c
e01e
e00e
c00e
c00e
c00e
c00e
e00e
e00e
f01e
f01c
fc7c
dff8
cff0
c3c0
c000
c000
c000
c000
c000
c000
ENDCHAR
STARTCHAR q
ENCODING 113
SWIDTH 324 0
DWIDTH 18 0
BBX 15 25 1 -7
BITMAP
07c6
1ff6
3ffe
383e
701e
700e
e00e
c006
c006
c006
c006
c00e
e00e
700e
701e
3c3e
3ffe
1fee
078e
0006
0006
0006
0006
0006
0006
ENDCHAR
STARTCHAR r
ENCODING 114
SWIDTH 198 0
DWIDTH 11 0
BBX 8 18 3 0
BITMAP
c7
cf
ff
f8
e0
e0
c0
c0
c0
c0
c0
c0
c0
c0
c0
c0
c0
c0
ENDCHAR
STARTCHAR s
ENCODING 115
SWIDTH 306 0
DWIDTH 17 0
BBX 14 19 1 -1
BITMAP
0fc0
3ff0
7878
7038
6018
6000
7000
7800
3f80
1ff0
03f8
003c
001c
e01c
e01c
f038
7ff8
3ff0
0f80
ENDCHAR
STARTCHAR t
ENCODING 116
SWIDTH 162 0
DWIDTH 9 0
BBX 8 23 0 -1
BITMAP
18
18
18
18
18
ff
ff
18
18
18
18
18
18
18
18
18
18
18
18
18
1f
1f
07
ENDCHAR
STARTCHAR u
ENCODING 117
SWIDTH 324 0
DWIDTH 18 0
BBX 13 18 3 -1
BITMAP
c018
c018
c018
c018
c018
c018
c018
c018
c018
c018
c018
c038
c038
c078
e0f8
7fd8
3f80
1e00
ENDCHAR
STARTCHAR v
ENCODING 118
SWIDTH 306 0
DWIDTH 17 0
BBX 16 17 0 0
BITMAP
e006
700f
700e
700e
381c
381c
383c
1c38
1c38
1c70
0e70
0ef0
0ee0
07e0
07c0
03c0
03c0
ENDCHAR
STARTCHAR w
ENCODING 119
SWIDTH 432 0
DWIDTH 24 0
BBX 23 17 0 0
BITMAP
e0380c
e0381e
607c1c
707c1c
707c1c
30ee3c
38ee38
38ce38
38c638
19c730
1dc770
1d8770
0d8360
0f83e0
0f83e0
0701c0
0701c0
ENDCHAR
STARTCHAR x
ENCODING 120
SWIDTH 306 0
DWIDTH 17 0
BBX 15 17 1 0
BITMAP
701c
781c
383c
1c78
0e70
0fe0
07c0
0380
0380
07c0
0fe0
0ee0
1c70
3838
7838
f01c
600e
ENDCHAR
STARTCHAR y
ENCODING 121
SWIDTH 306 0
DWIDTH 17 0
BBX 15 24 1 -7
BITMAP
e00c
e01e
701c
701c
703c
3838
3838
3870
1c70
1c70
1ee0
0ee0
0fc0
0fc0
07c0
0780
0780
0300
0700
0700
0e00
5e00
7c00
7800
ENDCHAR
STARTCHAR z
ENCODING 122
SWIDTH 306 0
DWIDTH 17 0
BBX 14 17 1 0
BITMAP
7ffc
7ffc
7ffc
0038
0070
00e0
01e0
03c0
0780
0700
0e00
1c00
3800
7000
fffc
fffc
fffc
ENDCHAR
STARTCHAR braceleft
ENCODING 123
SWIDTH 198 0
DWIDTH 11 0
BBX 8 32 1 -7
BITMAP
07
0f
0f
1c
18
18
18
18
18
18
18
18
18
18
30
e0
e0
f0
30
18
18
18
18
18
18
18
18
18
18
1c
0f
07
ENDCHAR
STARTCHAR bar
ENCODING 124
SWIDTH 162 0
DWIDTH 9 0
BBX 2 31 3 -7
BITMAP
c0
c0
c0
c0
c0
c0
c0
c0
c0
c0
c0
c0
c0
c0
c0
c0
c0
c0
c0
c0
c0
c0
c0
c0
c0
c0
c0
c0
c0
c0
c0
ENDCHAR
STARTCHAR braceright
ENCODING 125
SWIDTH 198 0
DWIDTH 11 0
BBX 8 32 1 -7
BITMAP
e0
f0
f0
38
18
18
18
18
18
18
18
18
18
18
0c
07
07
0f
0c
18
18
18
18
18
18
18
18
18
18
38
f0
e0
ENDCHAR
STARTCHAR asciitilde
ENCODING 126
SWIDTH 342 0
DWIDTH 19 0
BBX 14 6 3 9
BITMAP
1000
7c0c
7f0c
c78c
c1f8
0070
ENDCHAR
STARTCHAR exclamdown
ENCODING 161
SWIDTH 360 0
DWIDTH 20 0
BBX 16 19 1 0
BITMAP
03e0
0ffc
3c0e
6007
3c03
0e03
1c03
3803
3003
3003
3003
3003
3003
3003
3003
3003
3003
3003
3003
ENDCHAR
STARTCHAR cent
ENCODING 162
SWIDTH 360 0
DWIDTH 20 0
BBX 16 19 1 0
BITMAP
0e00
3f83
7ce3
c663
c663
c663
7c63
38e3
01c3
0183
0183
0183
0183
0183
0183
0183
0183
07ff
07fe
ENDCHAR
STARTCHAR sterling
ENCODING 163
SWIDTH 396 0
DWIDTH 22 0
BBX 19 19 0 0
BITMAP
0c2000
3ff860
618860
600860
fc1860
f63060
e33060
633060
673060
3e3060
183060
003060
003060
003060
003060
003060
0030e0
01ffe0
01ffc0
ENDCHAR
STARTCHAR currency
ENCODING 164
SWIDTH 360 0
DWIDTH 20 0
BBX 15 19 2 0
BITMAP
07e0
3ff8
701c
600e
c306
cfc6
ccc6
dc46
dc46
7fc6
7f86
3806
3806
3806
1806
1806
1806
1806
1806
ENDCHAR
STARTCHAR yen
ENCODING 165
SWIDTH 360 0
DWIDTH 20 0
BBX 16 19 1 0
BITMAP
0408
1f3c
39e6
7043
6183
e7e3
e663
ee23
6e23
7fe3
3fc3
3c03
1c03
1c03
0c03
0c03
0c03
0c03
0c03
ENDCHAR
STARTCHAR brokenbar
ENCODING 166
SWIDTH 450 0
DWIDTH 25 0
BBX 21 19 1 0
BITMAP
084000
3ff018
631818
c01818
fc3818
ee7018
c66018
c66018
e66018
7c6018
106018
01fc18
03ff18
0663d8
0660f8
066078
066038
07e018
03c018
ENDCHAR
STARTCHAR section
ENCODING 167
SWIDTH 288 0
DWIDTH 16 0
BBX 12 19 1 0
BITMAP
00c0
03e0
0630
0610
0630
03f0
41f0
c030
6030
7030
3030
3830
1830
0c30
0e30
0630
0730
03f0
01e0
ENDCHAR
STARTCHAR diaeresis
ENCODING 168
SWIDTH 342 0
DWIDTH 19 0
BBX 15 19 1 0
BITMAP
03c0
1ff8
781c
e00c
4006
0306
0fc6
0ce6
0866
0cf6
0ff6
079e
001e
000e
000e
000e
0006
0006
0006
ENDCHAR
STARTCHAR copyright
ENCODING 169
SWIDTH 396 0
DWIDTH 22 0
BBX 20 19 1 0
BITMAP
00f000
07fc00
1c0f00
380300
100180
000180
3c0180
7c0180
c60180
c20180
c60180
7e0fc0
163fe0
0671b0
06c1b0
0781b0
0701b0
0601f0
0601e0
ENDCHAR
STARTCHAR ordfeminine
ENCODING 170
SWIDTH 360 0
DWIDTH 20 0
BBX 19 20 1 0
BITMAP
000040
1f00c0
7fc180
7ce700
c67e00
c67e00
c66700
7c6300
38e300
01c300
018300
018300
018300
018300
018300
018300
018300
018300
07ff00
07fe00
ENDCHAR
STARTCHAR guillemotleft
ENCODING 171
SWIDTH 396 0
DWIDTH 22 0
BBX 21 21 0 0
BITMAP
000010
000038
1c7030
3ff8e0
618bc0
600f00
fc1bc0
f630e0
e33060
633060
673060
3e3060
183060
003060
003060
003060
003060
003060
0030e0
01ffe0
01ffc0
ENDCHAR
STARTCHAR notsign
ENCODING 172
SWIDTH 468 0
DWIDTH 26 0
BBX 22 19 1 0
BITMAP
03e000
1ff80c
700c0c
780e0c
1e060c
0c060c
18060c
30060c
30060c
30060c
30060c
30060c
301f0c
3f3fcc
3bb6ec
31a63c
31b61c
3b3e1c
1f1e0c
ENDCHAR
STARTCHAR hyphen
ENCODING 173
SWIDTH 468 0
DWIDTH 26 0
BBX 22 28 1 -9
BITMAP
03e000
1ff80c
700c0c
780e0c
1e060c
0c060c
18060c
30060c
30060c
30060c
30060c
30060c
30060c
3f060c
3b860c
31860c
31860c
3b3ffc
1f3ff8
000000
000000
001e0c
001f0c
00318c
003198
003b18
001e70
000fe0
ENDCHAR
STARTCHAR registered
ENCODING 174
SWIDTH 396 0
DWIDTH 22 0
BBX 18 29 1 -10
BITMAP
007800
01fe00
070380
1c0180
0f00c0
0180c0
0300c0
0600c0
0600c0
0600c0
0600c0
0600c0
0600c0
7e00c0
e600c0
c200c0
c600c0
ee00c0
7c00c0
0038c0
0038c0
0ff0c0
1ff0c0
387cc0
306ec0
38e7c0
1fc3c0
1f81c0
020000
ENDCHAR
STARTCHAR macron
ENCODING 175
SWIDTH 396 0
DWIDTH 22 0
BBX 18 29 1 -10
BITMAP
007800
01fe00
070380
1c0180
0f00c0
0180c0
0300c0
0600c0
0600c0
0600c0
0600c0
0600c0
0600c0
7e00c0
e600c0
c200c0
c600c0
ee00c0
7c00c0
0060c0
0060c0
0060c0
1ec0c0
3fc4c0
31cec0
31ffc0
3bf9c0
1f31c0
041000
ENDCHAR
STARTCHAR degree
ENCODING 176
SWIDTH 324 0
DWIDTH 18 0
BBX 17 30 1 -11
BITMAP
07c000
0fff00
181f80
3e0000
1fe000
00f800
003c00
041c00
1f8c00
198c00
10cc00
11cc00
1fec00
0f7c00
003c00
003c00
001c00
001c00
001c00
000000
000000
067800
064400
064400
766c00
fc3c00
8c8c00
cffc00
fb7800
022000
ENDCHAR
STARTCHAR plusminus
ENCODING 177
SWIDTH 468 0
DWIDTH 26 0
BBX 23 19 0 0
BITMAP
0c2000
3ff87c
6188ee
6009c6
fc1b86
f63306
e33706
633606
673606
3e3c06
183c06
003806
003806
003806
003006
003006
003006
003006
003006
ENDCHAR
STARTCHAR twosuperior
ENCODING 178
SWIDTH 504 0
DWIDTH 28 0
BBX 24 19 1 0
BITMAP
040800
1f3c03
39e603
704303
600303
e3e303
c76303
c63303
663303
677303
63e303
31c303
318783
1b0ff3
1f1b7b
1e1b1f
0e1b0f
0c0f07
040f03
ENDCHAR
STARTCHAR threesuperior
ENCODING 179
SWIDTH 486 0
DWIDTH 27 0
BBX 26 19 1 0
BITMAP
03e00000
1ff80c00
700c0c00
780e0c00
1e060c00
0c060c00
18060c00
30060c00
30060c00
30060c00
30060c00
30061f00
30067f80
3f06ecc0
3b868cc0
31878cc0
31870cc0
3b060f80
1f060f80
ENDCHAR
STARTCHAR acute
ENCODING 180
SWIDTH 360 0
DWIDTH 20 0
BBX 16 19 1 0
BITMAP
07f0
1ffc
3806
7007
6003
63e3
c763
c633
6633
6773
63e3
31c3
3183
1b03
1f03
1e03
0e03
0c03
0403
ENDCHAR
STARTCHAR mu
ENCODING 181
SWIDTH 360 0
DWIDTH 20 0
BBX 16 19 1 0
BITMAP
0408
1f3c
39e6
7043
6003
e3e3
c763
c633
6633
6773
63e3
31c3
3183
1b03
1f03
1e03
0e03
0c03
0403
ENDCHAR
STARTCHAR paragraph
ENCODING 182
SWIDTH 360 0
DWIDTH 20 0
BBX 16 19 1 0
BITMAP
03e0
0ffc
3c0e
6007
3c03
0e03
1c03
3803
3003
3003
3003
3003
3003
3f03
3b83
3183
3183
3b03
1f03
ENDCHAR
STARTCHAR periodcentered
ENCODING 183
SWIDTH 360 0
DWIDTH 20 0
BBX 18 19 1 0
BITMAP
180000
7c0f80
c61dc0
c238c0
c630c0
7e60c0
3e60c0
06c0c0
06c0c0
0780c0
0780c0
0780c0
0700c0
0700c0
0700c0
0600c0
0600c0
0600c0
0600c0
ENDCHAR
STARTCHAR cedilla
ENCODING 184
SWIDTH 324 0
DWIDTH 18 0
BBX 16 19 1 0
BITMAP
0f00
3ffe
701f
7c00
ffc0
01f0
0038
0c1c
0c1c
0c0c
0c0c
0c0c
0c0c
0c0c
0c0c
0c0c
0c1c
3ffc
3ff8
ENDCHAR
STARTCHAR onesuperior
ENCODING 185
SWIDTH 396 0
DWIDTH 22 0
BBX 21 19 1 0
BITMAP
180000
7c0180
c60180
c20180
c60180
7e0180
3e0180
060180
060180
060180
060180
060fe0
063ff0
067198
06e198
078198
0781b8
0701f0
0601f0
ENDCHAR
STARTCHAR masculine
ENCODING 186
SWIDTH 396 0
DWIDTH 22 0
BBX 18 19 1 0
BITMAP
180000
7c00c0
c600c0
c200c0
c600c0
7e00c0
3e00c0
0600c0
0600c0
0600c0
0600c0
0600c0
0600c0
0600c0
0600c0
0600c0
0601c0
3fffc0
3fff80
ENDCHAR
STARTCHAR guillemotright
ENCODING 187
SWIDTH 396 0
DWIDTH 22 0
BBX 18 26 1 0
BITMAP
0000c0
0000c0
0000c0
0000c0
0000c0
0000c0
0000c0
3800c0
7c00c0
c600c0
c200c0
c600c0
7e00c0
3e00c0
0600c0
0600c0
0600c0
0600c0
0600c0
0600c0
0600c0
0600c0
0600c0
0601c0
3fffc0
3fff80
ENDCHAR
STARTCHAR onequarter
ENCODING 188
SWIDTH 378 0
DWIDTH 21 0
BBX 15 19 3 0
BITMAP
3000
7c06
c606
8606
c406
fc06
f806
c006
c106
c306
c386
c6c6
cc66
d836
f01e
e01e
e00e
c006
c006
ENDCHAR
STARTCHAR onehalf
ENCODING 189
SWIDTH 378 0
DWIDTH 21 0
BBX 15 26 3 0
BITMAP
0006
0006
0006
0006
0006
0006
0006
7806
7c06
c606
8606
c406
fc06
f806
c006
c106
c306
c386
c6c6
cc66
d836
f01e
e01e
e00e
c006
c006
ENDCHAR
STARTCHAR threequarters
ENCODING 190
SWIDTH 432 0
DWIDTH 24 0
BBX 20 19 1 0
BITMAP
180000
7c0830
c60830
c21c30
c61c30
7e3630
3e3630
062330
066330
064130
06c1b0
06c1b0
0780f0
0780f0
070070
070070
060030
060030
060030
ENDCHAR
STARTCHAR questiondown
ENCODING 191
SWIDTH 432 0
DWIDTH 24 0
BBX 20 26 1 0
BITMAP
000030
000030
000030
000030
000030
000030
000030
380830
7c0830
c60c30
c21c30
c61c30
7e3630
3e3630
062330
066330
0641b0
06c1b0
06c1b0
0780f0
0780f0
070070
070070
060030
060030
060030
ENDCHAR
STARTCHAR Agrave
ENCODING 192
SWIDTH 396 0
DWIDTH 22 0
BBX 18 19 1 0
BITMAP
007800
01fe00
070380
1c0180
0f00c0
0180c0
0300c0
0600c0
0600c0
0600c0
0600c0
0600c0
0600c0
7e00c0
e600c0
c200c0
c600c0
ee00c0
7c00c0
ENDCHAR
STARTCHAR Aacute
ENCODING 193
SWIDTH 396 0
DWIDTH 22 0
BBX 17 19 2 0
BITMAP
300000
f80180
cc0180
840180
cc0180
fc0180
3c0180
0c0180
0c0180
0c0180
0c0180
3f8180
7fe180
cc7980
cc1d80
cc0f80
cc0780
fc0380
780180
ENDCHAR
STARTCHAR Acircumflex
ENCODING 194
SWIDTH 342 0
DWIDTH 19 0
BBX 14 19 2 0
BITMAP
1c00
3e0c
630c
630c
f30c
fe0c
e00c
600c
300c
1e0c
1e0c
380c
600c
600c
600c
600c
600c
7ffc
7ff8
ENDCHAR
STARTCHAR Atilde
ENCODING 195
SWIDTH 306 0
DWIDTH 17 0
BBX 16 19 1 0
BITMAP
0f80
3ffe
703e
7c00
7fc0
01f0
0078
0038
0018
0018
0018
0018
0018
01f8
0398
0308
0318
03b8
01f0
ENDCHAR
STARTCHAR Adiaeresis
ENCODING 196
SWIDTH 360 0
DWIDTH 20 0
BBX 16 29 1 -10
BITMAP
03e0
0ffc
3c0e
6007
3c03
0e03
1c03
3803
3003
3003
3003
3003
3003
3f03
3b83
3183
3183
3b03
1f03
0003
0003
0003
0003
0003
0003
0003
0003
0003
0003
ENDCHAR
STARTCHAR Aring
ENCODING 197
SWIDTH 342 0
DWIDTH 19 0
BBX 14 19 2 0
BITMAP
0780
1fe0
7838
e018
400c
0e0c
3f0c
338c
60cc
60ec
606c
603c
603c
7e1c
771c
631c
630c
360c
1e0c
ENDCHAR
STARTCHAR AE
ENCODING 198
SWIDTH 396 0
DWIDTH 22 0
BBX 18 29 1 -10
BITMAP
007800
01fe00
070380
1c0180
0f00c0
0180c0
0300c0
0600c0
0600c0
0600c0
0600c0
0600c0
0600c0
7e00c0
e600c0
c200c0
c600c0
ee00c0
7c00c0
0000c0
0000c0
0000c0
0000c0
0000c0
0000c0
0000c0
0000c0
0000c0
0000c0
ENDCHAR
STARTCHAR Ccedilla
ENCODING 199
SWIDTH 324 0
DWIDTH 18 0
BBX 14 19 1 0
BITMAP
0780
3fe0
7038
e018
400c
000c
000c
000c
000c
000c
000c
000c
000c
007c
00cc
00cc
00cc
00ec
0078
ENDCHAR
STARTCHAR Egrave
ENCODING 200
SWIDTH 360 0
DWIDTH 20 0
BBX 18 20 1 0
BITMAP
000080
07f1c0
1ffdc0
380f80
700700
618f00
e7ff00
e67300
ee2300
6e2300
7fe300
3fc300
3c0300
1c0300
1c0300
0c0300
0c0300
0c0300
0c0300
0c0300
ENDCHAR
STARTCHAR Eacute
ENCODING 201
SWIDTH 396 0
DWIDTH 22 0
BBX 21 19 1 0
BITMAP
180000
7c00c0
c600c0
c200c0
c600c0
7e10c0
3e7cd8
0644d8
06c4d8
064cf0
067fe0
061fc0
0600c0
0600c0
0600c0
0600c0
0601c0
3fffc0
3fff80
ENDCHAR
STARTCHAR Ecircumflex
ENCODING 202
SWIDTH 342 0
DWIDTH 19 0
BBX 15 21 2 0
BITMAP
0004
000e
078e
1ffc
7838
e038
406c
0e6c
3fcc
33cc
60cc
60ec
606c
603c
603c
7e1c
771c
631c
630c
360c
1e0c
ENDCHAR
STARTCHAR Ediaeresis
ENCODING 203
SWIDTH 396 0
DWIDTH 22 0
BBX 18 19 1 0
BITMAP
180300
7c0f80
c60cc0
c20840
c60cc0
7e0f80
3e0f80
061d80
0670c0
0660c0
06c0c0
0680c0
0780c0
0700c0
0700c0
0600c0
0600c0
0600c0
0600c0
ENDCHAR
STARTCHAR Igrave
ENCODING 204
SWIDTH 432 0
DWIDTH 24 0
BBX 24 22 1 0
BITMAP
0000e0
0001f3
000313
38031e
7c09bc
c609f8
c21c30
c61c30
7e1e30
3e3630
063630
066330
066330
06c1b0
06c1b0
0680f0
0780f0
070070
070070
060070
060030
060030
ENDCHAR
STARTCHAR Iacute
ENCODING 205
SWIDTH 360 0
DWIDTH 20 0
BBX 15 19 2 0
BITMAP
07c0
1ff8
781c
e00c
4006
0806
3e06
6306
6306
6306
7706
7e06
6006
6006
6006
6006
7006
7ffe
3ffc
ENDCHAR
STARTCHAR Icircumflex
ENCODING 206
SWIDTH 360 0
DWIDTH 20 0
BBX 17 19 2 0
BITMAP
07c100
3ff380
601f00
600e00
7ffe00
1fe600
000600
1c0600
3e0600
630600
630600
630600
7e0600
7e0600
600600
600600
700600
7ffe00
3ffc00
ENDCHAR
STARTCHAR Idiaeresis
ENCODING 207
SWIDTH 324 0
DWIDTH 18 0
BBX 13 20 2 -1
BITMAP
3800
7c18
ee18
c618
c618
fe38
fc38
e078
71d8
7fd8
1f98
0018
0018
0018
0018
0018
0030
00f0
01c0
0080
ENDCHAR
STARTCHAR ETH
ENCODING 208
SWIDTH 270 0
DWIDTH 15 0
BBX 12 19 1 0
BITMAP
3800
6c30
c470
c460
fde0
7f80
1e00
0000
0000
0000
0000
0000
3800
7c30
c470
c460
cce0
7fc0
3f00
ENDCHAR
STARTCHAR Ntilde
ENCODING 209
SWIDTH 0 0
DWIDTH 0 0
BBX 17 8 -12 22
BITMAP
380000
7c0180
c60380
c60700
ee0e00
7c7c00
3ff000
07c000
ENDCHAR
STARTCHAR Ograve
ENCODING 210
SWIDTH 288 0
DWIDTH 16 0
BBX 12 19 1 0
BITMAP
0f00
3fc0
6060
c030
4030
0030
0030
0030
0030
0030
0030
0030
0030
0030
0030
0030
0030
0030
0030
ENDCHAR
STARTCHAR Oacute
ENCODING 211
SWIDTH 288 0
DWIDTH 16 0
BBX 20 29 -7 0
BITMAP
780000
dc0000
840000
840000
cc0000
fc0000
300000
000000
000000
000000
000f00
003fc0
006060
00c030
004030
000030
000030
000030
000030
000030
000030
000030
000030
000030
000030
000030
000030
000030
000030
ENDCHAR
STARTCHAR Ocircumflex
ENCODING 212
SWIDTH 0 0
DWIDTH 0 0
BBX 15 8 -18 22
BITMAP
0780
1fe0
3038
6018
6f0c
fff4
003e
0002
ENDCHAR
STARTCHAR Otilde
ENCODING 213
SWIDTH 36 0
DWIDTH 2 0
BBX 16 10 -17 22
BITMAP
0006
0006
03c6
0ff6
183e
300e
6f86
7ffe
001e
0003
ENDCHAR
STARTCHAR Odiaeresis
ENCODING 214
SWIDTH 0 0
DWIDTH 0 0
BBX 16 10 -18 22
BITMAP
001e
0033
07f3
1ff3
383e
701c
6f8e
fffe
003e
0002
ENDCHAR
STARTCHAR multiply
ENCODING 215
SWIDTH 36 0
DWIDTH 2 0
BBX 16 10 -17 22
BITMAP
0066
0066
07e6
1ff6
383e
300e
6f86
7ffe
001e
0003
ENDCHAR
STARTCHAR Ooblique
ENCODING 216
SWIDTH 0 0
DWIDTH 0 0
BBX 7 12 -10 -14
BITMAP
18
7c
66
c2
c6
7e
3e
06
06
06
06
06
ENDCHAR
STARTCHAR Ugrave
ENCODING 217
SWIDTH 0 0
DWIDTH 0 0
BBX 12 12 -15 -14
BITMAP
3800
7c30
c630
c630
c630
7e30
3e30
0630
0630
0630
07f0
03e0
ENDCHAR
STARTCHAR Uacute
ENCODING 218
SWIDTH 0 0
DWIDTH 0 0
BBX 3 4 -6 -7
BITMAP
40
e0
e0
40
ENDCHAR
STARTCHAR Ucircumflex
ENCODING 219
SWIDTH 0 0
DWIDTH 0 0
BBX 4 4 -7 -14
BITMAP
20
f0
f0
f0
ENDCHAR
STARTCHAR Udiaeresis
ENCODING 220
SWIDTH 0 0
DWIDTH 0 0
BBX 1 1 0 0
BITMAP
00
ENDCHAR
STARTCHAR Yacute
ENCODING 221
SWIDTH 0 0
DWIDTH 0 0
BBX 1 1 0 0
BITMAP
00
ENDCHAR
STARTCHAR THORN
ENCODING 222
SWIDTH 0 0
DWIDTH 0 0
BBX 1 1 0 0
BITMAP
00
ENDCHAR
STARTCHAR ssharp
ENCODING 223
SWIDTH 0 0
DWIDTH 0 0
BBX 1 1 0 0
BITMAP
00
ENDCHAR
STARTCHAR agrave
ENCODING 224
SWIDTH 198 0
DWIDTH 11 0
BBX 7 18 3 0
BITMAP
c0
c0
c0
c0
c0
c0
c0
c0
c0
c0
c0
c0
fc
ee
c6
c6
ee
7c
ENDCHAR
STARTCHAR aacute
ENCODING 225
SWIDTH 360 0
DWIDTH 20 0
BBX 16 18 3 0
BITMAP
c060
c060
c060
c060
c060
c060
c060
c060
c060
c060
c060
c060
fc7e
ee77
c663
c663
ee76
7c3e
ENDCHAR
STARTCHAR acircumflex
ENCODING 226
SWIDTH 216 0
DWIDTH 12 0
BBX 14 34 -2 0
BITMAP
1f84
3ffc
7038
3c00
0f00
0300
0380
0180
0180
0180
0180
0180
0180
0180
0180
0180
0180
0180
0180
0180
0180
0180
0180
0180
0180
0180
0180
0180
01f0
0198
0188
0188
0198
00f0
ENDCHAR
STARTCHAR atilde
ENCODING 227
SWIDTH 216 0
DWIDTH 12 0
BBX 13 34 -2 0
BITMAP
3e00
6300
e180
f980
c980
cd80
7980
3180
0180
0180
0180
0180
0180
0180
0180
0180
0180
0180
0180
0180
0180
0180
0180
0180
0180
0180
0180
0180
01f0
0198
0188
0188
0198
00f0
ENDCHAR
STARTCHAR adiaeresis
ENCODING 228
SWIDTH 252 0
DWIDTH 14 0
BBX 15 34 -2 0
BITMAP
61c0
63e0
2360
3360
3260
3660
1660
1e60
1c60
1c60
0860
0060
0060
0060
0060
0060
0060
0060
0060
0060
0060
0060
0060
0060
0060
0060
0060
0060
007e
0066
0062
0066
0076
003c
ENDCHAR
STARTCHAR aring
ENCODING 229
SWIDTH 288 0
DWIDTH 16 0
BBX 12 29 1 -10
BITMAP
0f00
3fc0
6060
c030
4030
0030
0030
0030
0030
0030
0030
0030
0030
0030
0030
0030
0030
0030
0030
0030
0030
0030
0030
0030
0030
0030
0030
0030
0030
ENDCHAR
STARTCHAR ae
ENCODING 230
SWIDTH 396 0
DWIDTH 22 0
BBX 13 27 6 -8
BITMAP
18c0
7fe0
6730
c018
c018
fc18
fe18
e218
e618
7e18
3c18
0018
0018
0018
0018
0018
0018
0018
0018
0018
0018
0018
0038
0070
01f0
01c0
0100
ENDCHAR
STARTCHAR ccedilla
ENCODING 231
SWIDTH 0 0
DWIDTH 0 0
BBX 14 11 -16 22
BITMAP
000c
000c
001c
7ff8
7000
c000
cc78
dfd8
73c8
61d8
2070
ENDCHAR
STARTCHAR egrave
ENCODING 232
SWIDTH 0 0
DWIDTH 0 0
BBX 2 7 -5 34
BITMAP
c0
c0
c0
c0
c0
c0
c0
ENDCHAR
STARTCHAR eacute
ENCODING 233
SWIDTH 0 0
DWIDTH 0 0
BBX 12 8 -11 33
BITMAP
3000
7830
cc30
cc30
fc60
78e0
19c0
3f00
ENDCHAR
STARTCHAR ecircumflex
ENCODING 234
SWIDTH 0 0
DWIDTH 0 0
BBX 13 8 -13 33
BITMAP
0008
7f98
c488
d098
f890
c8b0
49e0
3180
ENDCHAR
STARTCHAR ediaeresis
ENCODING 235
SWIDTH 0 0
DWIDTH 0 0
BBX 9 8 -9 33
BITMAP
0c00
0c00
0c00
ff80
ff80
0c00
0c00
0c00
ENDCHAR
STARTCHAR igrave
ENCODING 236
SWIDTH 0 0
DWIDTH 0 0
BBX 10 10 -8 31
BITMAP
00c0
00c0
0780
7f00
4000
f800
ec00
c400
6c00
3800
ENDCHAR
STARTCHAR iacute
ENCODING 237
SWIDTH 0 0
DWIDTH 0 0
BBX 7 7 -10 21
BITMAP
38
7c
c6
c6
c6
7c
38
ENDCHAR
STARTCHAR icircumflex
ENCODING 238
SWIDTH 0 0
DWIDTH 0 0
BBX 7 7 -10 27
BITMAP
10
7c
c6
c6
c6
ee
7c
ENDCHAR
STARTCHAR idiaeresis
ENCODING 239
SWIDTH 342 0
DWIDTH 19 0
BBX 19 18 0 0
BITMAP
0ffc00
1fff00
380380
71f1c0
63f8c0
c7fce0
cffc60
cffe60
cffe60
cffe60
cffc60
e7fce0
63f8c0
71f1c0
380380
1c0700
0ffe00
03f800
ENDCHAR
STARTCHAR eth
ENCODING 240
SWIDTH 360 0
DWIDTH 20 0
BBX 16 14 2 0
BITMAP
07e0
1ff8
3c3c
701e
600e
e007
c003
c003
c003
e007
700e
381c
1ff8
0ff0
ENDCHAR
STARTCHAR ntilde
ENCODING 241
SWIDTH 360 0
DWIDTH 20 0
BBX 16 15 2 -1
BITMAP
07e0
1ff8
381c
700e
6006
c7c3
c663
c463
c663
e7e3
71e3
3fc6
1f8e
000c
0018
ENDCHAR
STARTCHAR ograve
ENCODING 242
SWIDTH 432 0
DWIDTH 24 0
BBX 21 20 1 0
BITMAP
200000
f00000
300000
300000
300000
300000
3030e0
30fbf0
31cf38
338618
33f218
33b018
331818
331818
31f018
30e018
380018
1c0038
1ffff0
07ffe0
ENDCHAR
STARTCHAR oacute
ENCODING 243
SWIDTH 414 0
DWIDTH 23 0
BBX 19 14 2 0
BITMAP
0f0f00
3f9f80
71f1c0
60f0c0
e060e0
e06060
e06060
dc6060
fe6060
e36060
e360e0
6360e0
7e60e0
3c60c0
ENDCHAR
STARTCHAR ocircumflex
ENCODING 244
SWIDTH 414 0
DWIDTH 23 0
BBX 22 21 2 0
BITMAP
000018
000018
000018
000018
000038
000030
000070
01c1e0
0fffc0
3f1f00
780000
60f000
e1f000
c31800
c31800
c3b800
e1f000
60f800
781f80
1fffe0
0ff060
ENDCHAR
STARTCHAR otilde
ENCODING 245
SWIDTH 414 0
DWIDTH 23 0
BBX 22 21 2 0
BITMAP
000018
000018
006018
01f018
019838
031830
019870
01fbe0
0fffc0
3fbf00
780000
60f000
e1f000
c31800
c31800
c3b800
e1f000
60f800
781f80
1fffe0
0ff060
ENDCHAR
STARTCHAR odiaeresis
ENCODING 246
SWIDTH 324 0
DWIDTH 18 0
BBX 16 21 0 0
BITMAP
6000
e000
7000
7000
3000
3000
3000
1ff8
1ffc
1c3e
100e
0007
0007
0f07
1f87
3987
39cf
398e
1fbc
0ffc
07f0
ENDCHAR
STARTCHAR division
ENCODING 247
SWIDTH 432 0
DWIDTH 24 0
BBX 22 20 2 0
BITMAP
000018
000018
000038
000030
000030
000030
000030
0e3830
3f7e30
71e630
61c330
e0c330
c00330
c00330
ce0330
ff0660
730660
730cc0
330f80
1e0e00
ENDCHAR
STARTCHAR oslash
ENCODING 248
SWIDTH 414 0
DWIDTH 23 0
BBX 20 20 2 0
BITMAP
000070
000030
000030
000030
000030
000070
000070
07f9e0
1fffe0
380000
600000
600700
c00f80
c018c0
cf18e0
ef99e0
6ccfe0
3ce0c0
3c71c0
1c1f80
ENDCHAR
STARTCHAR ugrave
ENCODING 249
SWIDTH 378 0
DWIDTH 21 0
BBX 18 20 2 0
BITMAP
000180
0001c0
0000c0
0000c0
0000c0
0000c0
0000c0
1f9fc0
3fffc0
70f380
e07000
c03800
c01800
c31c00
cfcc00
ccce00
e8c600
7cc700
3fc380
1f8300
ENDCHAR
STARTCHAR uacute
ENCODING 250
SWIDTH 990 0
DWIDTH 55 0
BBX 54 2 1 8
BITMAP
fffffffffffffc
fffffffffffffc
ENDCHAR
STARTCHAR ucircumflex
ENCODING 251
SWIDTH 504 0
DWIDTH 28 0
BBX 26 2 1 8
BITMAP
ffffffc0
ffffffc0
ENDCHAR
STARTCHAR udiaeresis
ENCODING 252
SWIDTH 0 0
DWIDTH 0 0
BBX 7 12 -10 -23
BITMAP
38
7c
c6
c2
c6
7e
3e
06
06
06
06
06
ENDCHAR
STARTCHAR yacute
ENCODING 253
SWIDTH 0 0
DWIDTH 0 0
BBX 12 12 -15 -23
BITMAP
3830
7c30
c630
c630
c630
7e30
3e30
0630
0630
0630
07e0
01c0
ENDCHAR
STARTCHAR thorn
ENCODING 254
SWIDTH 468 0
DWIDTH 26 0
BBX 24 24 1 -1
BITMAP
007e00
01ffc0
0381e0
060070
0c0018
39fe0c
70c78e
60c186
60c182
c0c183
c0c703
c0fc03
c0cc03
c0ce03
c0c703
60c383
60c1c6
31f1e6
10000c
180018
0c0030
0780e0
01ff80
003c00
ENDCHAR
STARTCHAR ydiaeresis
ENCODING 255
SWIDTH 0 0
DWIDTH 0 0
BBX 1 1 0 0
BITMAP
00
ENDCHAR
ENDFONT
